<svg viewBox="-52 0 511 511.99905" xmlns="http://www.w3.org/2000/svg"><path d="m404.492188 247.433594c-11.800782-55.964844-53.09375-98.542969-105.199219-108.472656-28.496094-5.429688-49.019531 3.398437-65.515625 10.496093-2.816406 1.210938-5.5625 2.386719-8.257813 3.464844-1.640625-6.589844-3.835937-13.390625-6.375-20.164063.21875.003907.433594.015626.652344.015626 27.71875 0 54.667969-10.945313 74.558594-30.835938 6.949219-6.949219 12.875-14.792969 17.617187-23.3125l.453125-.824219c2.644531-4.847656.855469-10.921875-3.992187-13.566406s-10.921875-.859375-13.566406 3.992187l-.378907.683594c-3.832031 6.894532-8.636719 13.25-14.273437 18.886719-17.808594 17.804687-42.617188 26.757813-67.503906 24.683594-2.078126-24.90625 6.878906-49.699219 24.683593-67.503907 19.535157-19.535156 47.484375-28.414062 74.757813-23.761718 5.445312.929687 10.609375-2.730469 11.539062-8.175782.929688-5.441406-2.730468-10.609374-8.175781-11.539062-33.65625-5.746094-68.148437 5.21875-92.265625 29.335938-14.5 14.5-24.238281 32.757812-28.457031 52.324218-2.714844-4.410156-5.21875-8.152344-7.320313-10.96875-8.664062-11.609375-25.097656-14.394531-36.636718-6.207031-9.523438 6.753906-15.8125 21.8125-2.195313 42.007813 4.253906 6.308593 11.320313 21.6875 17.285156 37.535156-14.808593-5.898438-32.792969-11.011719-56.121093-6.566406-31.050782 5.917968-59.050782 23.679687-78.847657 50.023437-3.316406 4.414063-2.429687 10.683594 1.988281 14 1.800782 1.355469 3.90625 2.007813 6 2.007813 3.035157 0 6.035157-1.378907 8-3.992188 17.042969-22.679688 40.074219-37.335938 66.601563-42.390625 22.476563-4.285156 38.433594 2.582031 53.867187 9.222656 2.199219.945313 4.441407 1.90625 6.695313 2.835938 1.0625 4.097656 1.835937 7.820312 2.214844 10.9375-5.976563.605469-12.785157-.113281-21.105469-2.660157-5.28125-1.625-10.871094 1.347657-12.492188 6.628907-1.617187 5.28125 1.351563 10.875 6.632813 12.492187 8.515625 2.609375 16.074219 3.714844 22.875 3.714844 20.773437 0 34.515625-10.320312 46.996094-19.699219 6.328125-4.753906 12.867187-9.664062 20.300781-13.328125.71875-.308594 1.433594-.617187 2.148438-.921875 15.433593-6.640625 31.394531-13.507812 53.867187-9.222656 44.164063 8.414063 79.246094 44.902344 89.375 92.953125 12.363281 58.648438-8.707031 119.152344-28.558594 159.582031-9.953125 20.265625-30.285156 47.667969-44.191406 62.453125-9.742187 10.359375-25.847656 20.429688-38.152344 18.0625-6.628906-1.273437-13.742187-4.007812-21.269531-6.898437-13.683594-5.261719-29.199219-11.222657-48.203125-11.222657s-34.515625 5.960938-48.203125 11.222657c-7.527344 2.890625-14.640625 5.625-21.269531 6.898437-12.316407 2.363282-28.410157-7.703125-38.152344-18.0625-13.90625-14.78125-34.234375-42.183594-44.191406-62.453125-18.871094-38.433593-39.363281-96.164062-29.8125-152.949219.917969-5.445312-2.757813-10.605468-8.203125-11.519531-5.449219-.917969-10.605469 2.753907-11.519532 8.203125-10.4375 62.027344 11.414063 124.007813 31.585938 165.078125 11.1875 22.785157 32.859375 51.703125 47.570312 67.34375 11.308594 12.019531 30.15625 24.699219 49.011719 24.699219 2.5 0 5.003907-.222656 7.484375-.703125 8.375-1.609375 16.289063-4.648437 24.671875-7.871094 12.652344-4.863281 25.734375-9.890625 41.027344-9.890625s28.375 5.027344 41.027344 9.890625c8.382812 3.222657 16.296875 6.261719 24.671875 7.871094 21.207031 4.078125 43.6875-10.378906 56.496094-23.996094 14.710937-15.644531 36.382812-44.5625 47.570312-67.34375 21.242188-43.253906 43.71875-108.292969 30.179688-172.523437zm-209.152344-72.902344c-.734375-4.003906-1.769532-8.34375-3.027344-12.863281-.125-.792969-.347656-1.566407-.65625-2.304688-7.070312-24.335937-19.980469-52.984375-26.429688-62.550781-4.578124-6.785156-5.683593-12.488281-2.816406-14.519531 2.042969-1.449219 6.4375-1.621094 9.03125 1.859375 10.746094 14.402344 31.726563 53.777344 36.335938 81.515625-.1875.140625-.375.28125-.5625.421875-4.152344 3.121094-8.003906 6.007812-11.875 8.441406zm0 0"/><path d="m34.542969 218.996094c0 5.519531-4.476563 10-10 10-5.519531 0-10-4.480469-10-10 0-5.523438 4.480469-10 10-10 5.523437 0 10 4.476562 10 10zm0 0"/><path d="m315.210938 36.96875c-5.414063-1.089844-10.6875 2.414062-11.777344 7.828125l-.085938.410156c-1.097656 5.414063 2.402344 10.691407 7.8125 11.789063.671875.132812 1.339844.199218 2 .199218 4.65625 0 8.828125-3.273437 9.789063-8.015624l.089843-.433594c1.089844-5.414063-2.414062-10.6875-7.828124-11.777344zm0 0"/><path d="m287.484375 441.589844c-4.394531-3.34375-10.667969-2.488282-14.011719 1.902344l-.164062.214843c-3.34375 4.394531-2.492188 10.671875 1.902344 14.015625 1.808593 1.375 3.9375 2.039063 6.046874 2.039063 3.019532 0 6-1.359375 7.96875-3.945313l.160157-.214844c3.347656-4.394531 2.492187-10.667968-1.902344-14.011718zm0 0"/><path d="m292.921875 434.753906c1.789063 1.324219 3.875 1.960938 5.941406 1.960938 3.0625 0 6.085938-1.398438 8.046875-4.050782 10.964844-14.824218 19.789063-30.714843 26.976563-48.578124 2.0625-5.125-.417969-10.949219-5.542969-13.011719-5.121094-2.0625-10.949219.417969-13.007812 5.542969-6.550782 16.269531-14.566407 30.714843-24.503907 44.152343-3.285156 4.441407-2.347656 10.703125 2.089844 13.984375zm0 0"/></svg>