<svg viewBox="0 0 511 511.99789" xmlns="http://www.w3.org/2000/svg"><path d="m92.257812 165.957031c1.101563.390625 2.226563.574219 3.332032.574219 4.117187 0 7.976562-2.566406 9.425781-6.667969l.117187-.332031c1.832032-5.210938-.902343-10.917969-6.113281-12.75-5.214843-1.832031-10.917969.902344-12.75 6.113281l-.109375.300781c-1.839844 5.207032.890625 10.921876 6.097656 12.761719zm0 0"/><path d="m163.609375 465.773438c1.101563.390624 2.226563.574218 3.332031.574218 4.121094 0 7.976563-2.5625 9.429688-6.667968l.117187-.332032c1.832031-5.210937-.90625-10.917968-6.113281-12.75-5.214844-1.832031-10.917969.902344-12.753906 6.113282l-.105469.300781c-1.839844 5.207031.886719 10.921875 6.09375 12.761719zm0 0"/><path d="m498.636719 366.621094c-5.488281-.496094-10.359375 3.566406-10.851563 9.066406l-.039062.433594c-.523438 5.496094 3.503906 10.378906 9.003906 10.902344.320312.03125.644531.046874.960938.046874 5.09375 0 9.445312-3.875 9.941406-9.050781l.050781-.546875c.496094-5.5-3.566406-10.359375-9.066406-10.851562zm0 0"/><path d="m494.746094 396.722656c-5.257813-1.695312-10.890625 1.191406-12.585938 6.445313-13.410156 41.566406-46.566406 73.121093-88.691406 84.410156-33.011719 8.84375-67.484375 4.304687-97.074219-12.78125-8.347656-4.816406-16.019531-10.472656-22.9375-16.84375-.300781-.320313-.613281-.621094-.945312-.894531-9.25-8.699219-17.105469-18.699219-23.363281-29.730469-.097657-.175781-.191407-.355469-.300782-.527344-5.179687-9.238281-9.246094-19.183593-12.058594-29.679687-8.84375-33.007813-4.304687-67.480469 12.78125-97.074219 10.105469-17.503906 23.890626-32.058594 40.296876-42.863281.390624-.210938.765624-.457032 1.132812-.730469 11.03125-7.09375 23.214844-12.515625 36.246094-16.007813 24.152344-6.472656 43.625-23.367187 62.460937-39.703124 30.992188-26.890626 51.4375-42.535157 79.964844-26.066407 28.191406 16.277344 25.128906 39.710938 17.292969 79.734375-4.65625 23.792969-9.933594 50.753906-3.039063 76.492188 1.007813 3.769531 1.855469 7.609375 2.515625 11.410156.941406 5.441406 6.117188 9.085938 11.558594 8.148438 5.4375-.945313 9.085938-6.121094 8.144531-11.558594-.761719-4.390625-1.734375-8.824219-2.902343-13.175782-5.695313-21.265624-1.097657-44.753906 3.351562-67.472656 3.742188-19.113281 7.277344-37.167968 5.125-54.21875-2.574219-20.445312-13.058594-35.714844-32.046875-46.679687-19.164063-11.0625-37.992187-12.386719-57.5625-4.035157-16.246094 6.929688-31.121094 19.835938-45.507813 32.316407-17.121093 14.851562-34.824218 30.210937-54.527343 35.492187-12.402344 3.324219-24.140625 8.160156-35.019531 14.339844-1.625-1.773438-3.273438-3.507812-4.949219-5.183594-17.695313-17.695312-26.46875-43.28125-34.949219-68.023437-7.066406-20.609375-13.742188-40.078125-25.292969-55.308594-8.5625-11.285156-18.957031-18.957031-31.429687-23.140625-.269532-3.984375-.671875-8.027344-1.171875-12.070312 10.269531 3.3125 21.414062 5.039062 32.640625 5.039062 6.710937 0 13.453125-.613281 20.054687-1.871094 25.132813-4.773437 45.734375-18.351562 55.109375-36.316406 2.464844-4.722656.796875-10.542969-3.792968-13.242188-19.703126-11.601562-46.074219-15.746093-70.542969-11.097656-16.15625 3.070313-30.4375 9.785156-41.070313 18.957032-1.886718-6.996094-3.800781-12.914063-5.449218-17.050782-5.082032-12.75-19.441407-19.324218-32.023438-14.660156-11.203125 4.15625-19.382812 17.433594-12.402344 37.71875 2.210938 6.4375 5.714844 26.039062 7.074219 45.234375-22.671875 8.335937-34.40625 26.863281-41.679687 41.71875-2.429688 4.960937-.378907 10.949219 4.582031 13.378906 4.960937 2.429688 10.949219.375 13.378906-4.582031 9.386719-19.175781 20.222656-29.574219 35.535156-33.316406.507813-.070313.996094-.191406 1.476563-.335938 4.09375-.871094 8.5-1.292968 13.277344-1.292968 37.355468 0 48.203124 26.113281 62.808593 68.722656 8.792969 25.644531 18.757813 54.710937 39.726563 75.679687.734375.734375 1.464844 1.488281 2.191406 2.246094-15.167969 11.664063-28.046875 26.308594-37.902344 43.378906-19.757812 34.214844-25.003906 74.078125-14.777344 112.246094 2.65625 9.921875 6.289063 19.417969 10.796876 28.390625-8.304688 7.703125-22.34375 13.980469-33.183594 14.320312-5.523438.171876-9.855469 4.789063-9.683594 10.308594.171875 5.414063 4.613281 9.683594 9.988281 9.683594.105469 0 .214844 0 .320313-.003906 14.339844-.449219 31.019531-7.289063 42.882812-16.855469 3.820313 5.539063 8.027344 10.804687 12.582032 15.769531-56.898438 41.753906-137.625 36.253906-188.289063-14.414062-56.539063-56.539063-56.535156-148.53125 0-205.070313 15.3125-15.3125 24.277344-35.546875 30.378906-51.46875 1.976563-5.15625-.601562-10.9375-5.757812-12.914062-5.15625-1.976563-10.9375.601562-12.914063 5.757812-5.394531 14.070313-13.203125 31.839844-25.847656 44.484375-64.335938 64.335938-64.335938 169.015625 0 233.351563 29.582031 29.582031 68.882812 46.707031 110.667969 48.21875 2.023437.074219 4.039062.113281 6.058593.113281 36.476563 0 71.628907-11.960938 100.40625-34.097656 6.367188 5.261718 13.214844 10.03125 20.511719 14.246094 22.796875 13.160156 48.089844 19.878906 73.722657 19.878906 12.847656 0 25.785156-1.6875 38.523437-5.101563 48.714844-13.050781 87.050781-49.535156 102.550781-97.585937 1.695313-5.253906-1.191406-10.890625-6.445312-12.585938zm-268.285156-362.824218c15.898437-3.023438 32.660156-1.539063 46.742187 3.910156-7.984375 8.398437-20.378906 14.679687-34.980469 17.457031-15.902344 3.019531-32.660156 1.535156-46.738281-3.910156 7.980469-8.402344 20.378906-14.683594 34.976563-17.457031zm-67.867188 46.390624c-1.566406-19.417968-5.078125-39.367187-7.902344-47.574218-2.210937-6.421875-2.023437-11.546875.449219-12.464844 1.839844-.6875 5.210937.101562 6.488281 3.3125 2.433594 6.101562 6.144532 18.75 9.011719 33.371094.015625.082031.03125.164062.046875.246094 1.4375 7.355468 2.652344 15.195312 3.386719 22.960937-1.527344-.074219-3.074219-.117187-4.648438-.117187-2.355469 0-4.628906.097656-6.832031.265624zm0 0"/><path d="m416.839844 280.316406c-.6875-2.558594-2.363282-4.742187-4.65625-6.070312-2.296875-1.324219-5.03125-1.683594-7.589844-1l-62.296875 16.695312c-19.21875 5.148438-35.285156 17.476563-45.230469 34.707032-9.949218 17.230468-12.59375 37.304687-7.441406 56.527343 8.90625 33.242188 39.082031 55.21875 71.96875 55.21875 6.363281 0 12.832031-.820312 19.265625-2.546875 19.21875-5.148437 35.28125-17.476562 45.230469-34.707031 9.949218-17.230469 12.59375-37.308594 7.441406-56.527344zm-8.070313 108.824219c-7.277343 12.605469-19.027343 21.625-33.085937 25.390625-4.710938 1.261719-9.4375 1.863281-14.09375 1.863281-24.058594 0-46.136719-16.078125-52.652344-40.394531-3.765625-14.0625-1.832031-28.746094 5.445312-41.355469 7.277344-12.605469 19.027344-21.621093 33.089844-25.390625l52.636719-14.101562 14.105469 52.636718c3.769531 14.0625 1.835937 28.746094-5.445313 41.351563zm0 0"/></svg>