<svg viewBox="0 -66 512.00045 512" xmlns="http://www.w3.org/2000/svg"><path d="m497.96875 162.808594c-5.335938-1.429688-10.816406 1.734375-12.246094 7.070312-24.726562 92.296875-80.09375 156.277344-155.90625 180.160156-80.4375 25.332032-172.277344 2.371094-252.972656-62.984374 3.453125-6.632813 7.910156-11.003907 12.515625-14.597657 31.851563 7.945313 64.265625 10.015625 96.085937 6.40625.046876 0 .09375.011719.140626.011719.871093 0 1.722656-.121094 2.539062-.335938 39.074219-4.828124 77.210938-18.222656 112.265625-39.90625 54.242187-33.554687 97.378906-84.875 120.957031-143.105468.167969-.355469.3125-.722656.433594-1.097656.691406-1.726563 1.371094-3.460938 2.027344-5.199219 5.09375 3.335937 11.988281 5.859375 21.542968 5.859375 5.429688 0 11.722657-.816406 19.03125-2.757813 5.335938-1.417969 8.515626-6.894531 7.097657-12.230469-1.417969-5.335937-6.890625-8.515624-12.234375-7.097656-12.519532 3.324219-19.425782 2.351563-23.863282-.257812 8.808594-8.609375 9.792969-21.660156 10.742188-34.394532.289062-3.882812.589844-7.867187 1.0625-12.101562 3.878906-3 9.152344-5.027344 13.910156-5.855469 2.972656 14.78125 8.683594 34.199219 28.214844 51.992188 1.816406 11.273437 2.71875 24.035156 2.6875 38.003906-.011719 5.523437 4.453125 10.007813 9.976562 10.023437h.023438c5.511719-.003906 9.988281-4.464843 10-9.976562.039062-16.601562-1.171875-31.75-3.59375-45.023438-.417969-2.277343-1.613281-4.34375-3.378906-5.839843-19.554688-16.546875-22.839844-34.699219-25.480469-49.285157l-.335937-1.863281c-.777344-4.238281-4.179688-7.5-8.441407-8.101562-11.496093-1.621094-29.535156 2.792969-40.3125 14.15625-1.449219 1.527343-2.378906 3.472656-2.65625 5.5625-.820312 6.164062-1.246093 11.824219-1.617187 16.816406-1.40625 18.757813-2.648438 21.914063-9.496094 24.082031-.367188.117188-.730469.257813-1.085938.417969-.085937.039063-.164062.082031-.25.125-.246093.117187-.488281.246094-.726562.386719-.125.074218-.242188.152344-.359375.226562-.109375.070313-.21875.132813-.324219.207032-.085937.058593-.164062.128906-.25.195312-.117187.085938-.230468.175781-.34375.265625-.191406.160156-.375.328125-.554687.496094-.085938.082031-.171875.164062-.257813.246093-.230468.238282-.449218.488282-.65625.746094-.019531.027344-.046875.050782-.070312.082032-.234375.300781-.449219.613281-.644532.9375-.035156.054687-.0625.117187-.097656.175781-.152344.261719-.292968.527343-.421875.800781-.046875.101562-.09375.210938-.136719.316406-.105468.242188-.195312.488282-.277343.734375-.023438.074219-.058594.140625-.082031.210938-1.828126 5.886719-3.894532 11.734375-6.175782 17.535156-68.0625 50.78125-173.710937 90.121094-268.980468 49.984375-5.089844-2.148438-10.953126.242188-13.097657 5.332031-2.144531 5.089844.246094 10.953125 5.335938 13.097657 28.097656 11.839843 59.019531 17.808593 91.398437 17.808593 19.347656 0 39.226563-2.132812 59.316406-6.425781 37.375-7.976562 74.390626-23.003906 108.746094-43.980469-40.542968 70.429688-114.03125 127.046875-201.019531 137.917969-90.125-12.824219-131.445313-75.519531-164.816406-165.96875 3.445312-6.066406 8.492187-10.332031 13.132812-12.40625 10.917969 14.0625 22.914063 26.671875 35.738281 37.5625 4.210938 3.574219 10.523438 3.058594 14.09375-1.148438 3.578126-4.210937 3.0625-10.519531-1.148437-14.097656-13.269531-11.265625-25.605469-24.582031-36.675781-39.582031-2.082032-2.824219-5.488282-4.347656-8.984375-4.019531-14.863281 1.398437-29.421875 13.148437-36.222657 29.238281-.984374 2.324219-1.050781 4.933594-.1875 7.308594 20.507813 56.449219 40.976563 94.238281 66.371094 122.527343 14.746094 16.425782 31.261719 29.523438 49.785156 39.4375-8.902343-1.398437-17.878906-3.28125-26.917968-5.707031-2.878906-.769531-5.949219-.21875-8.378906 1.507813-10.058594 7.140625-20.191407 16.117187-26.183594 33.289062-1.367188 3.921875-.171875 8.28125 3.007812 10.953125 43.820313 36.820313 90.863282 61.710938 139.816406 73.976563 22.03125 5.519531 44.144532 8.277344 65.820313 8.277344 24.800781 0 49.03125-3.609376 71.902344-10.8125 39.914062-12.574219 74.753906-35.273438 103.554687-67.476563 30.082032-33.636719 52.171875-76.226563 65.664063-126.585937 1.425781-5.335938-1.738281-10.816407-7.074219-12.246094zm0 0"/><path d="m501.132812 135.402344c-5.476562-.597656-10.40625 3.386718-11.023437 8.863281-.003906.027344-.019531.140625-.019531.167969-.570313 5.476562 3.394531 10.34375 8.871094 10.9375.363281.039062.722656.058594 1.082031.058594 5.027343 0 9.363281-3.8125 9.941406-8.921876 0-.023437.011719-.132812.015625-.15625.574219-5.480468-3.390625-10.351562-8.867188-10.949218zm0 0"/><path d="m94.148438 136.054688.410156.257812c1.65625 1.042969 3.5 1.542969 5.320312 1.542969 3.320313 0 6.570313-1.652344 8.46875-4.671875 2.945313-4.671875 1.542969-10.847656-3.128906-13.789063l-.3125-.199219c-4.652344-2.972656-10.835938-1.605468-13.808594 3.050782-2.96875 4.652344-1.605468 10.835937 3.050782 13.808594zm0 0"/><path d="m328.671875 294.027344c-11.597656 11.179687-29.480469 17.601562-49.058594 17.613281-5.519531 0-9.996093 4.480469-9.992187 10.003906 0 5.519531 4.480468 9.996094 10 9.996094h.003906c24.703125-.015625 47.640625-8.476563 62.929688-23.214844 3.976562-3.832031 4.089843-10.164062.257812-14.140625-3.832031-3.976562-10.164062-4.09375-14.140625-.257812zm0 0"/><path d="m250.769531 311.207031c-5.5-.066406-10.0625 4.332031-10.144531 9.855469-.078125 5.523438 4.332031 10.0625 9.855469 10.144531l.269531.003907h.144531c5.457031 0 9.917969-4.382813 9.996094-9.855469.082031-5.519531-4.332031-10.0625-9.851563-10.144531zm0 0"/></svg>