<svg viewBox="-31 0 511 511.99699" xmlns="http://www.w3.org/2000/svg"><path d="m34.429688 306.8125c-5.519532-.230469-10.175782 4.066406-10.398438 9.585938l-.023438.542968c-.222656 5.519532 4.066407 10.171875 9.585938 10.394532.136719.007812.273438.007812.414062.007812 5.335938 0 9.765626-4.214844 9.984376-9.59375l.023437-.542969c.222656-5.515625-4.070313-10.171875-9.585937-10.394531zm0 0"/><path d="m285.058594 375.367188c.480468.066406.957031.101562 1.429687.101562 4.894531 0 9.171875-3.601562 9.886719-8.585938 1.632812-11.4375 4.046875-22.753906 7.175781-33.640624 3.351563-11.671876 7.546875-22.597657 11.988281-34.167969 1.9375-5.042969 3.941407-10.257813 5.863282-15.523438 1.890625-5.1875-.78125-10.929687-5.96875-12.820312-5.191406-1.890625-10.929688.78125-12.824219 5.96875-1.859375 5.105469-3.832031 10.242187-5.738281 15.207031-4.402344 11.457031-8.953125 23.308594-12.546875 35.820312-3.378907 11.761719-5.984375 23.984376-7.75 36.324219-.78125 5.46875 3.015625 10.53125 8.484375 11.316407zm0 0"/><path d="m449.375 238.011719c0-40.878907-32.820312-88.386719-75.152344-88.496094-18.921875-.519531-34.777344.554687-48.960937 6.953125-10.238281-6.902344-21.902344-11.066406-34.398438-11.097656-13.53125-.371094-27.359375-.148438-40.390625 3.75-1.675781-4.839844-3.550781-9.707032-5.558594-14.511719.058594 0 .113282.003906.167969.003906 28.125-.003906 55.476563-11.109375 75.660157-31.289062 7.050781-7.054688 13.066406-15.015625 17.871093-23.652344l.464844-.847656c2.640625-4.847657.851563-10.921875-4-13.5625-4.847656-2.644531-10.921875-.855469-13.5625 3.996093l-.382813.691407c-3.902343 7.019531-8.792968 13.488281-14.535156 19.230469-18.160156 18.164062-43.460937 27.285156-68.867187 25.121093-2.160157-25.402343 6.957031-50.707031 25.121093-68.867187 19.890626-19.894532 48.347657-28.9375 76.117188-24.195313 5.449219.925781 10.609375-2.730469 11.539062-8.175781.929688-5.441406-2.730468-10.609375-8.175781-11.539062-34.15625-5.832032-69.15625 5.296874-93.625 29.765624-15.15625 15.15625-25.1875 34.355469-29.246093 54.890626-1.320313-1.980469-2.5625-3.761719-3.691407-5.273438-8.835937-11.84375-25.597656-14.6875-37.359375-6.339844-9.710937 6.890625-16.105468 22.261719-2.1875 42.914063 3.25 4.820312 8.832032 16.261719 14.257813 29.535156-10.328125-1.855469-20.988281-1.929687-31.472657-1.644531-12.496093.035156-24.160156 4.199218-34.394531 11.097656-14.1875-6.394531-30.042969-7.46875-48.964843-6.953125-42.332032.109375-75.148438 47.621094-75.148438 88.496094 0 17.121093 3.007812 32.996093 9.46875 49.953125 1.96875 5.164062 7.746094 7.753906 12.90625 5.785156 5.160156-1.964844 7.75-7.742188 5.785156-12.90625-5.644531-14.808594-8.160156-28.019531-8.160156-42.832031 0-15.628907 6.339844-33.070313 16.957031-46.660157 6.375-8.152343 19.828125-21.835937 38.335938-21.835937.089843 0 .183593 0 .277343-.003906 12.074219-.335938 22.519532.011719 31.578126 2.238281-1.328126 1.5625-2.597657 3.195312-3.835938 4.855469-.253906.339843-.507812.679687-.757812 1.023437-.375.515625-.746094 1.035156-1.113282 1.558594-.480468.6875-.949218 1.386719-1.414062 2.085938-.277344.421874-.554688.839843-.824219 1.265624-.535156.835938-1.058594 1.683594-1.566406 2.53125-.191407.316407-.378907.628907-.566407.945313-.578124.984375-1.136718 1.984375-1.679687 2.988281-.109375.203125-.222656.40625-.332031.609375-.609375 1.140625-1.195313 2.292969-1.761719 3.457031-.042969.082032-.082031.164063-.125.25-1.238281 2.558594-2.367187 5.164063-3.386719 7.804688-.007812.011719-.011718.023438-.015625.039062-.507812 1.308594-.984375 2.628907-1.433593 3.953126-.015626.042968-.027344.085937-.042969.128906-.4375 1.292968-.847657 2.59375-1.226563 3.894531-.023437.074219-.042968.148437-.066406.222656-.371094 1.273438-.710938 2.550781-1.027344 3.828125-.023437.101563-.046875.199219-.074218.300782-.304688 1.257812-.582032 2.515624-.835938 3.773437-.023438.117187-.046875.234375-.070312.351563-.242188 1.25-.460938 2.496093-.652344 3.746093-.019532.121094-.039063.242188-.054688.363281-.1875 1.257813-.347656 2.511719-.476562 3.765626-.011719.101562-.023438.210937-.035156.3125-.128907 1.285156-.226563 2.566406-.296876 3.84375-.003906.070312-.007812.140624-.011718.207031-.070313 1.34375-.105469 2.679687-.105469 4.007812 0 31.871094 8.347656 53.304688 17.183594 75.992188 9.035156 23.195312 18.347656 47.101562 20.011719 85.96875.175781 4.019531.265624 8.203125.265624 12.558593 0 .96875.015626 1.9375.042969 2.902344.003907.152344.011719.300782.015625.453125.027344.863281.066406 1.726563.113282 2.585938.003906.046875.007812.09375.011718.144531.839844 14.429688 4.644532 28.070312 10.8125 40.332031 3.488282 11.839844 2.777344 20.570313-2.046875 24.644531-5.628906 4.75-17.574219 4.003907-29.054687-1.8125-17.808594-9.027343-36.039063-30.355468-33.792969-63.15625.015625-.230468.023437-.457031.023437-.683593 0-25.992188-3.6875-48.582031-11.609374-71.097657-.644532-1.824218-1.316407-3.664062-2-5.460937-1.972657-5.15625-7.75-7.746094-12.910157-5.773437-5.160156 1.96875-7.746093 7.746093-5.777343 12.90625.625 1.636718 1.238281 3.308593 1.824218 4.96875 7.113282 20.21875 10.441406 40.601562 10.472656 64.125-2.761718 42.351562 21.269532 70.125 44.730469 82.011718 9.410157 4.769532 18.871094 7.144532 27.503907 7.144532 9.09375 0 17.265624-2.632813 23.492187-7.890626 2.960937-2.5 6.558594-6.578124 8.882813-12.765624 18.734374 18.558593 44.492187 30.035156 72.878906 30.035156 28.390625 0 54.144531-11.476563 72.878906-30.035156 2.328125 6.1875 5.921875 10.265624 8.882812 12.765624 6.226563 5.257813 14.398438 7.890626 23.492188 7.890626 8.636719 0 18.101562-2.375 27.507812-7.144532 23.460938-11.886718 47.488282-39.660156 44.726563-82.011718.0625-45.867188 12.878906-72.464844 25.273437-98.191407 11.148438-23.132812 21.679688-44.980469 21.679688-77.257812zm-256.570312-131.714844c-4.824219-7.160156-5.933594-13.210937-2.824219-15.417969 2.210937-1.570312 6.960937-1.765625 9.757812 1.984375 4.546875 6.097657 12.390625 18.976563 19.84375 34.246094.125.300781.269531.589844.421875.875 4.539063 9.375 8.902344 19.605469 12.257813 29.699219-2.5 1.703125-4.949219 3.625-7.328125 5.804687-3.070313-2.8125-6.253906-5.199219-9.527344-7.230469-6.953125-19.65625-16.597656-41.054687-22.601562-49.960937zm32.128906 385.703125c-32.25 0-60.277344-18.367188-74.21875-45.179688-.078125-.179687-.15625-.359374-.242188-.53125-1.808594-3.519531-3.34375-7.121093-4.617187-10.792968-.125-.371094-.253907-.738282-.375-1.109375-.183594-.5625-.367188-1.121094-.542969-1.683594-.300781-.992187-.585938-1.996094-.855469-3.007813-.078125-.296874-.15625-.601562-.230469-.902343-.296874-1.171875-.574218-2.351563-.820312-3.542969-.007812-.039062-.015625-.082031-.023438-.121094-.269531-1.316406-.507812-2.644531-.714843-3.980468-.003907-.023438-.007813-.042969-.011719-.066407-.199219-1.300781-.363281-2.613281-.5-3.933593-.015625-.144532-.03125-.289063-.042969-.433594-.128906-1.277344-.226562-2.558594-.296875-3.851563-.007812-.167969-.011718-.335937-.019531-.5-.0625-1.320312-.101563-2.644531-.101563-3.976562 0-50.230469-11.496093-79.746094-21.640624-105.785157-8.488282-21.796874-15.820313-40.621093-15.820313-68.734374 0-.855469.027344-1.714844.0625-2.582032.011719-.257812.023437-.515625.039063-.773437.039062-.683594.089843-1.371094.152343-2.0625.039063-.4375.082031-.875.132813-1.316407.054687-.496093.113281-.996093.179687-1.492187.070313-.523437.144531-1.046875.226563-1.570313.023437-.152343.050781-.304687.074218-.453124 2.964844-17.996094 13.269532-36.542969 27.070313-47.652344.066406-.050782.121094-.109375.183594-.164063 6.996093-5.617187 16.191406-10.429687 27.167969-10.429687.09375 0 .183593 0 .277343-.003906 2.507813-.070313 4.933594-.109376 7.273438-.109376 22.90625 0 38.191406 3.738282 50.402343 19.105469 1.898438 2.386719 4.78125 3.78125 7.832032 3.78125 3.046875 0 5.929687-1.394531 7.828125-3.78125 13.460937-16.941406 30.660156-19.742187 57.675781-18.996093.09375.003906.183594.003906.277344.003906 10.972656 0 20.171875 4.8125 27.167968 10.425781.0625.054687.117188.117187.183594.167969 13.800782 11.109375 24.105469 29.65625 27.070313 47.652344.023437.148437.050781.300781.074219.453124.082031.523438.15625 1.046876.226562 1.570313.066406.496094.125.992187.179688 1.492187.050781.4375.09375.878907.132812 1.316407.0625.6875.113281 1.378906.152344 2.0625.015625.257812.027344.515625.039062.773437.039063.863282.066406 1.726563.066406 2.582032 0 28.113281-7.332031 46.9375-15.824218 68.734374-10.140625 26.039063-21.636719 55.554688-21.636719 105.785157 0 1.332031-.039063 2.65625-.101563 3.972656-.007812.167969-.015624.335937-.023437.503906-.066406 1.289063-.167969 2.574219-.292969 3.847657-.015625.148437-.03125.292968-.046875.4375-.136719 1.320312-.300781 2.632812-.5 3.929687-.003906.027344-.007812.050781-.011719.074219-.203124 1.332031-.441406 2.65625-.710937 3.964844-.007813.046874-.015625.09375-.023437.136718-.246094 1.1875-.523438 2.363282-.816407 3.53125-.078125.308594-.15625.617188-.238281.921875-.265625 1.003907-.550781 2-.851562 2.992188-.175782.570312-.363282 1.136719-.550782 1.703125-.117187.359375-.242187.714844-.363281 1.074218-1.277344 3.679688-2.8125 7.285157-4.621094 10.8125-.089843.175782-.167969.359376-.25.542969-13.9375 26.804688-41.960937 45.167969-74.210937 45.167969zm157.488281-78.203125c0 .226563.007813.453125.023437.683594 2.25 32.800781-15.980468 54.128906-33.789062 63.15625-11.480469 5.816406-23.429688 6.5625-29.058594 1.8125-4.820312-4.070313-5.535156-12.804688-2.046875-24.644531 6.171875-12.261719 9.976563-25.902344 10.816407-40.335938.003906-.046875.003906-.09375.007812-.140625.050781-.859375.085938-1.722656.113281-2.585937.007813-.152344.015625-.304688.019531-.453126.027344-.964843.042969-1.933593.042969-2.902343 0-46.472657 10.304688-72.933594 20.273438-98.527344 8.839843-22.6875 17.1875-44.121094 17.1875-75.992187 0-1.328126-.035157-2.664063-.105469-4.007813-.003906-.066406-.007812-.136719-.011719-.207031-.070312-1.277344-.167969-2.558594-.296875-3.84375-.011718-.101563-.023437-.207032-.035156-.3125-.132812-1.253906-.289062-2.507813-.476562-3.765625-.019532-.121094-.039063-.242188-.054688-.363281-.191406-1.25-.410156-2.5-.65625-3.75-.023438-.113282-.042969-.230469-.066406-.34375-.253906-1.261719-.535156-2.519532-.839844-3.777344-.023438-.101563-.046875-.199219-.074219-.296875-.3125-1.28125-.65625-2.558594-1.027343-3.832031-.019532-.074219-.042969-.148438-.0625-.222657-.382813-1.300781-.792969-2.601562-1.230469-3.894531-.011719-.042969-.027344-.085938-.039063-.128906-.449218-1.324219-.929687-2.644532-1.433594-3.957032-.007812-.011718-.011718-.023437-.015624-.035156-1.019532-2.640625-2.148438-5.246094-3.386719-7.808594-.042969-.082031-.082031-.164062-.125-.246093-.566407-1.164063-1.152344-2.316407-1.761719-3.460938-.109375-.199219-.21875-.398437-.328125-.601562-.546875-1.003907-1.105469-2.003907-1.683594-2.992188-.1875-.316406-.375-.628906-.5625-.941406-.511719-.851563-1.035156-1.699219-1.570312-2.535156-.269531-.425781-.546875-.84375-.824219-1.261719-.464844-.703125-.9375-1.402344-1.417969-2.09375-.363281-.519531-.734375-1.035156-1.105469-1.550781-.277343-.378907-.558593-.753907-.835937-1.128907-1.214844-1.625-2.460937-3.222656-3.761719-4.753906 9.058594-2.230468 19.503906-2.574218 31.578125-2.238281.09375.003906.1875.003906.28125.003906 18.503907 0 31.960938 13.679688 38.332031 21.835938 10.621094 13.589843 16.960938 31.03125 16.960938 46.660156 0 27.707031-9.125 46.648437-19.695312 68.578125-12.777344 26.511719-27.257813 56.566406-27.257813 107.203125zm0 0"/><path d="m342.054688 37.578125c-5.410157-1.113281-10.695313 2.375-11.808594 7.785156l-.074219.347657c-1.152344 5.402343 2.289063 10.714843 7.691406 11.871093.703125.148438 1.40625.222657 2.101563.222657 4.613281 0 8.765625-3.214844 9.769531-7.910157l.105469-.507812c1.109375-5.410157-2.375-10.695313-7.785156-11.808594zm0 0"/></svg>