<svg viewBox="-33 0 512 512.00239" xmlns="http://www.w3.org/2000/svg"><path d="m357.257812 398.125c-4.929687-2.480469-10.945312-.496094-13.425781 4.4375-2.480469 4.9375-.496093 10.949219 4.4375 13.429688 3.992188 2.007812 7.269531 5.117187 9.480469 9 4.902344 8.605468 3.550781 19.621093-3.289062 26.789062-3.8125 3.992188-3.664063 10.324219.328124 14.136719 1.9375 1.851562 4.421876 2.765625 6.90625 2.765625 2.636719 0 5.269532-1.035156 7.234376-3.09375 12.890624-13.507813 15.441406-34.273438 6.199218-50.496094-4.167968-7.320312-10.347656-13.1875-17.871094-16.96875zm0 0"/><path d="m414.816406 287.230469c21.664063-15.875 33.5-42.222657 30.558594-69.359375-.59375-5.492188-5.546875-9.457032-11.019531-8.863282-5.492188.59375-9.460938 5.527344-8.863281 11.019532 2.316406 21.390625-7.828126 42.113281-25.96875 53.421875-10.003907-6.78125-21.371094-10.964844-33.074219-12.441407-.09375-.011718-.183594-.027343-.277344-.039062-1.046875-.128906-2.101563-.234375-3.15625-.316406-.292969-.027344-.589844-.046875-.882813-.066406-.875-.058594-1.75-.109376-2.628906-.140626-.441406-.015624-.882812-.023437-1.328125-.03125-.664062-.007812-1.332031-.011718-1.996093-.007812-.484376.003906-.96875.007812-1.449219.023438-.820313.023437-1.640625.058593-2.457031.105468-.558594.035156-1.117188.082032-1.671876.125-.441406.039063-.878906.078125-1.316406.125-.914062.089844-1.828125.199219-2.742187.324219-.421875.058594-.84375.117187-1.269531.179687-.582032.089844-1.164063.1875-1.75.289063-.542969.097656-1.085938.207031-1.628907.316406-.769531.15625-1.535156.320313-2.300781.5-.5.117188-1 .238281-1.496094.367188-.613281.15625-1.226562.320312-1.839844.492187-.722656.203125-1.445312.417969-2.164062.648438-.433594.136718-.867188.277344-1.300781.421875-.882813.296875-1.757813.605469-2.628907.933593-3.378906-3.433593-6.296874-7.296874-8.714843-11.539062v-.003906c-.003907 0-.003907-.003906-.003907-.003906-.050781-.089844-.09375-.179688-.144531-.269532-.433593-.773437-.851562-1.550781-1.246093-2.335937-.042969-.085938-.082032-.175781-.125-.261719-.382813-.773438-.75-1.546875-1.09375-2.332031-10.945313-24.898438-2.203126-54.492188 20.867187-69.355469.0625-.039062.121094-.082031.183594-.121094.796875-.507812 1.609375-1 2.4375-1.472656.003906 0 .003906-.003906.003906-.003906 19.460937-11.085938 43.570313-9.5 61.417969 4.035156 4.398437 3.339844 10.671875 2.476562 14.011718-1.921875 3.335938-4.402344 2.476563-10.675781-1.925781-14.011719-6.367187-4.832031-13.324219-8.527344-20.59375-11.101562 8.046875-6.394532 14.503907-14.167969 18.414063-22.882813 7.984375-17.804687 3.375-36.257812-12.332032-49.371093-15.90625-13.28125-41.699218-9.53125-57.488281 8.359374-3.558593 4.035157-5.757812 8.9375-6.421875 14.1875-2.164062-20.914062-8.609375-45.902343-24.304687-70.292968-1.644531-2.554688-4.355469-4.222656-7.375-4.535156-3.007813-.316407-6.015625.757812-8.148438 2.914062-.1875.191406-17.265625 17.460938-41.144531 41.238281-6.289062-7.46875-16.5625-18.515625-30.582031-29.855469-32.265625-26.101562-69.335938-41.417968-107.207031-44.289062-3.617188-.285156-7.109376 1.4375-9.105469 4.472656-.445313.671875-10.878907 16.738282-15.84375 42.902344-3.765625 19.84375-4.90625 49.039062 7.5625 82.839844-4.949219-1.175782-10.535157-2.21875-16.597657-2.882813-30.34375-3.308593-58.324218 4.507813-80.914062 22.601563-2.976562 2.382812-4.339844 6.257812-3.507812 9.980468.347656 1.5625 8.332031 35.9375 43.152343 75.128907-13.570312 8.585937-32.976562 26.953125-37.289062 63.125-.210938 1.757812.050781 3.539062.757812 5.164062.628907 1.453125 14.730469 32.617188 60.523438 35.660157-4.257813 18.023437-2 37.628906 7.867187 54.953124 1.542969 2.707032 3.261719 5.339844 5.113282 7.824219 3.296874 4.429688 9.5625 5.351563 13.992187 2.050781 4.433594-3.296874 5.347656-9.5625 2.050781-13.992187-1.367187-1.835937-2.640625-3.785156-3.777344-5.785156-15.242187-26.753907-5.875-60.914063 20.875-76.15625.222657-.125.449219-.234375.671876-.359375.605468-.335938 1.210937-.667969 1.824218-.980469.148438-.074219.296875-.136719.445313-.210937 24.421875-12.058594 54.070312-4.566407 69.902343 17.296874.0625.089844.132813.175782.195313.265626.410156.574218.804687 1.164062 1.195313 1.757812.136718.207031.277343.40625.414062.613281.34375.539063.667969 1.09375.996094 1.648438.167968.28125.34375.554687.507812.839843 0 .003907.003906.003907.003906.007813 0 0 .003907.003906.003907.003906 2.414062 4.242188 4.25 8.71875 5.480469 13.371094-12.46875 9.933594-21.460938 23.5-25.757813 39.167969-.171875.628906-.3125 1.257812-.46875 1.886718-.027344.113282-.054687.222657-.082031.332032-.519532 2.148437-.949219 4.308594-1.28125 6.46875-.007813.054687-.015625.109375-.023438.164062-.796875 5.277344-1.039062 10.578125-.71875 15.832032-8.773437 4.542968-18.535156 6.683593-28.386718 6.191406-5.535157-.28125-10.210938 3.972656-10.484376 9.492187-.273437 5.515625 3.976563 10.207031 9.492188 10.484375 1.257812.0625 2.511719.09375 3.765625.09375 10.210937 0 20.28125-2.078125 29.660156-6.082031 1.523438 4.363281 3.4375 8.625 5.773438 12.730469 10.027343 17.601562 26.308593 30.242187 45.84375 35.597656 6.667969 1.828125 13.441406 2.734375 20.171875 2.734375 9.730468 0 19.371094-1.894531 28.464844-5.613281.363281.6875.71875 1.382812 1.109374 2.066406 13.964844 24.519531 39.636719 38.285156 66.019532 38.285156 12.714844 0 25.597656-3.199218 37.414062-9.929687 36.332032-20.699219 49.054688-67.101563 28.355469-103.433594-.394531-.691406-.816406-1.355469-1.226563-2.027344 13.265626-10.027343 22.820313-24.046875 27.292969-40.347656 5.351563-19.539063 2.78125-39.988281-7.246093-57.589844-2.355469-4.132812-5.054688-7.941406-8.019532-11.445312zm-132.289062 34.4375c-.234375 1.191406-.441406 2.382812-.617188 3.578125-.019531.128906-.039062.261718-.058594.390625-.496093 3.480469-.75 6.964843-.761718 10.4375-2.90625-1.707031-5.9375-3.226563-9.078125-4.546875-.042969-.015625-.085938-.035156-.125-.050782-1.484375-.617187-2.988281-1.191406-4.515625-1.71875-.054688-.019531-.109375-.039062-.164063-.058593-.742187-.253907-1.488281-.496094-2.238281-.726563-.136719-.042968-.273438-.082031-.414062-.125-.65625-.199218-1.308594-.410156-1.976563-.59375-15.667969-4.296875-31.925781-3.480468-46.828125 2.179688-3.371094-3.429688-6.289062-7.289063-8.703125-11.527344-.003906-.003906-.003906-.007812-.007813-.011719 0-.003906-.003906-.003906-.003906-.007812-.050781-.085938-.09375-.175781-.140625-.261719-.4375-.777344-.855469-1.554688-1.25-2.34375-.039062-.078125-.078125-.164062-.117187-.242188-12.558594-25.320312-4.058594-56.265624 19.652344-71.625.105468-.066406.199218-.136718.304687-.203124.75-.476563 1.515625-.9375 2.292969-1.386719.046875-.027344.09375-.054688.140625-.082031v-.003907c24.074219-13.714843 54.199219-7.46875 71.074219 13.441407.085937.105468.175781.203124.257812.308593.417969.527344.820312 1.074219 1.222656 1.621094.160156.210937.324219.417969.480469.636719.328125.460937.644531.945312.964844 1.421875.207031.3125.425781.617187.632812.9375.265625.417969.519531.851562.777344 1.28125.246094.410156.503906.808593.738281 1.226562.003906 0 .003906.003907.003906.003907s0 0 .003907.003906c2.414062 4.242187 4.25 8.722656 5.480469 13.375-12.46875 9.933594-21.460938 23.496094-25.757813 39.167968-.449219 1.644532-.824219 3.296876-1.164063 4.957032-.035156.179687-.070312.363281-.105468.546875zm-169.21875-35.78125c-4.050782-10.878907-4.601563-22.722657-1.46875-34.136719 3.941406-14.386719 13.25-26.371094 26.210937-33.753906 24.0625-13.710938 54.121094-7.511719 71.011719 13.34375-.007812.003906-.011719.007812-.019531.011718-.425781.332032-.84375.671876-1.261719 1.011719-.304688.246094-.605469.492188-.90625.746094-11.789062 9.828125-20.3125 22.980469-24.457031 38.097656-1.804688 6.582031-2.6875 13.269531-2.710938 19.914063-5.726562-3.371094-11.929687-6.019532-18.511719-7.824219-16.03125-4.394531-32.679687-3.441406-47.867187 2.582031-.007813.003906-.015625.003906-.019531.007813zm210.046875-119.867188c.023437.058594.046875.117188.070312.171875-.414062.324219-.820312.65625-1.226562.984375-.308594.25-.617188.503907-.921875.757813-11.785156 9.832031-20.304688 22.980468-24.449219 38.09375-1.808594 6.597656-2.691406 13.296875-2.710937 19.957031-.191407-.113281-.390626-.21875-.585938-.332031-1.828125-1.054688-3.695312-2.03125-5.601562-2.925782-.3125-.148437-.625-.292968-.9375-.4375-.613282-.277343-1.226563-.550781-1.847657-.8125-.183593-.078124-.371093-.148437-.558593-.226562-1.226563-.507812-2.46875-.980469-3.722657-1.425781-.253906-.089844-.507812-.179688-.765625-.269531-.660156-.226563-1.324218-.441407-1.992187-.652344-.238281-.074219-.476563-.140625-.710938-.210938-1.292969-.390625-2.59375-.746094-3.902343-1.066406-.1875-.042969-.375-.09375-.5625-.136719-.679688-.160156-1.359376-.308593-2.042969-.449219-.289063-.058593-.578125-.117187-.871094-.171874-2.128906-.417969-4.277344-.742188-6.441406-.976563-.355469-.039063-.714844-.074219-1.074219-.109375-.644531-.058594-1.289062-.117188-1.933594-.160156-.332031-.023438-.664062-.035156-1-.054688-1.097656-.058594-2.203125-.097656-3.308594-.109375-.285156-.003906-.566406-.015625-.851562-.015625-.128906 0-.253906.007813-.382812.011719-.839844.003906-1.675782.023437-2.515626.054687-.359374.015626-.722656.03125-1.078124.046876-.808594.042968-1.613282.101562-2.417969.167968-.394531.035156-.792969.070313-1.1875.113282-.773438.078124-1.546875.164062-2.316407.269531-.429687.054687-.859374.117187-1.292968.183593-.738282.109376-1.476563.226563-2.214844.363282-.464844.082031-.929688.175781-1.390625.269531-.707031.140625-1.410156.285156-2.113281.449219-.5.113281-.992188.238281-1.488282.363281-.671874.167969-1.339843.339844-2.007812.527344-.53125.148437-1.058594.3125-1.585938.472656-.628906.195313-1.261718.386719-1.890624.59375-.566407.191406-1.128907.398437-1.691407.601563-.585937.210937-1.175781.421874-1.761719.648437-.117187.046875-.234374.082031-.351562.128906-4.050781-10.878906-4.601562-22.71875-1.46875-34.136719 3.941406-14.386718 13.25-26.371093 26.207031-33.753906 24.007813-13.675781 53.984375-7.535156 70.898438 13.203125zm23.335937-36.800781c5.488282 4.84375 12.496094 7.339844 19.714844 7.019531 7.367188-.324219 14.078125-3.507812 18.898438-8.972656 3.652343-4.140625 3.257812-10.460937-.882813-14.117187-4.144531-3.652344-10.460937-3.257813-14.117187.882812-1.191407 1.351562-2.886719 2.140625-4.773438 2.222656-2.035156.089844-4.019531-.632812-5.601562-2.03125-1.585938-1.398437-2.550782-3.28125-2.714844-5.304687-.152344-1.882813.421875-3.664063 1.613281-5.015625 9.425781-10.679688 22.953125-11.851563 29.671875-6.242188 8.925781 7.453125 11.246094 16.144532 6.902344 25.832032-5.53125 12.328124-20.722656 23.882812-38.882813 27.941406-.929687.167968-1.855469.351562-2.78125.554687-4.980469.886719-10.152343 1.195313-15.390625.808594-.730468-.882813-1.480468-1.742187-2.246094-2.582031 1.167969-6.75 2.71875-19.066406 2.085938-34.550782 1.429688 5.191407 4.351562 9.890626 8.503906 13.554688zm-320.304687 168.257812c6.125-39.742187 35.207031-49.488281 36.402343-49.875 3.355469-1.015624 5.933594-3.71875 6.792969-7.117187.859375-3.402344-.125-7.003906-2.59375-9.496094-29.21875-29.457031-41.253906-57.476562-45.386719-69.390625 17.328126-11.90625 37.558594-16.753906 60.230469-14.417968 19.292969 1.984374 33.226563 8.667968 33.34375 8.726562 3.875 1.910156 8.546875 1.109375 11.566407-1.984375 3.023437-3.09375 3.714843-7.777344 1.71875-11.613281-15.605469-29.929688-20.742188-60.300782-15.28125-90.273438 2.652343-14.542968 7.300781-25.496094 10.277343-31.457031 31.738281 3.667969 61.757813 16.734375 89.316407 38.890625 22.226562 17.863281 34.386718 35.25 34.5 35.410156 1.679687 2.441406 4.355468 4.011719 7.308593 4.289063 2.945313.269531 5.871094-.773438 7.972657-2.863281 16.90625-16.792969 31.261718-31.1875 40.035156-40.011719 15.804687 30.625 16.554687 61.402343 15.132812 79.230469-22.523437-12.828126-51.054687-13.820313-75.164062-.085938-17.601563 10.027344-30.246094 26.308594-35.601563 45.84375-.453125 1.65625-.828125 3.320312-1.167969 4.988281-3.371093-16.355469-8.945312-39.652343-17.226562-63.378906-1.820312-5.210937-7.523438-7.96875-12.738281-6.144531-5.214844 1.820312-7.964844 7.523437-6.144531 12.738281 8.453124 24.21875 14.03125 48.4375 17.191406 64.261719-19.027344-5.535156-40.183594-3.691406-58.722656 6.867187-3.710938 2.113281-7.1875 4.523438-10.433594 7.164063-10.332032-4.445313-27.363282-13.121094-34.296875-22.390625-3.304688-4.421875-9.574219-5.328125-13.996094-2.019531-4.421875 3.308593-5.328125 9.578124-2.019531 14 8.539062 11.414062 24.527344 20.464843 35.957031 25.882812-4.832031 6.972656-8.5 14.789062-10.8125 23.210938-4.53125 16.53125-3.363281 33.710937 3.171875 49.269531-8.648438 6.464843-15.601562 14.523437-20.652344 23.539062-31.859375.089844-44.914062-15.832031-48.679687-21.792969zm201.378906 157.765626c-14.382813-3.945313-26.371094-13.253907-33.753906-26.210938-3.4375-6.039062-5.671875-12.535156-6.691407-19.203125-.707031-4.621094-.8125-9.246094-.371093-13.777344.011719-.113281.023437-.226562.035156-.339843.058594-.578126.128906-1.15625.207031-1.730469.019532-.152344.042969-.308594.066406-.460938.152344-1.066406.339844-2.128906.550782-3.179687.03125-.144532.054687-.285156.085937-.425782.109375-.515624.226563-1.03125.351563-1.542968.054687-.222656.109375-.449219.167968-.675782 2.871094-11.289062 9.226563-21.566406 18.332032-29.167968.105468-.089844.210937-.175782.320312-.261719.441406-.367187.890625-.726563 1.347656-1.078125.1875-.144531.378907-.28125.566407-.421875.65625-.492187 1.324219-.96875 2-1.433594 1.265625-.863281 2.5625-1.691406 3.910156-2.457031 1.054687-.601562 2.125-1.167969 3.203125-1.695312.023438-.011719.046875-.015626.066406-.027344 12.695313-6.171875 27.058594-7.15625 40.179688-3.296875.226562.066406.453125.132812.675781.203125.5.152344 1 .3125 1.496094.480468.148437.046876.292969.101563.4375.152344 1.003906.351563 2 .726563 2.980469 1.136719.148437.058594.300781.121094.449218.183594.53125.222656 1.058594.457031 1.585938.699219.105468.050781.207031.097656.3125.144531 4.128906 1.933593 8.058594 4.390625 11.679687 7.359375.003907.003906.007813.007812.011719.011718 5.203125 4.273438 9.644531 9.496094 13.074219 15.523438.394531.6875.769531 1.382812 1.132812 2.085938-.164062.125-.320312.257812-.484375.386718-.449218.34375-.890625.695313-1.328125 1.046875-.417969.339844-.824219.683594-1.230469 1.027344-.796874.671875-1.574218 1.359375-2.332031 2.058594-.335937.308593-.675781.613281-1.003906.925781-.472656.449219-.933594.910156-1.390625 1.371094-.289062.289062-.574219.582031-.859375.875-.460937.480468-.921875.960937-1.371094 1.453125-.222656.242187-.4375.492187-.65625.738281-.828125.929688-1.625 1.875-2.402343 2.835938-.230469.289062-.46875.578124-.695313.867187-.394531.507813-.777344 1.015625-1.160156 1.53125-.261719.355469-.519531.710937-.777344 1.070313-.347656.492187-.699219.980468-1.039063 1.476562-.523437.773438-1.035156 1.554688-1.53125 2.34375-.246093.390625-.476562.789062-.710937 1.183594-.339844.558594-.671875 1.121094-.992187 1.6875-.210938.375-.421876.75-.628907 1.128906-.394531.722656-.773437 1.453125-1.144531 2.191406-.109375.210938-.21875.417969-.324219.628906-.5 1.015626-.972656 2.039063-1.425781 3.074219-.042969.101563-.085938.207031-.128906.308594-.4375 1.003906-.847656 2.019531-1.242188 3.042969-.027344.070312-.054687.140625-.078125.210937-5.191406 13.671875-6.460937 28.8125-3.113281 43.585938-11.476562 4.84375-24.15625 5.699219-36.359375 2.355469zm137.988281 29.449218c-8.699218 4.957032-18.179687 7.3125-27.542968 7.3125-19.425782 0-38.328126-10.136718-48.609376-28.1875-1.847656-3.238281-3.324218-6.589844-4.460937-9.996094-.066406-.203124-.132813-.40625-.199219-.613281-.230468-.722656-.449218-1.453125-.652344-2.183593-.027343-.097657-.054687-.191407-.082031-.289063-3.105469-11.515625-2.367187-23.566406 1.746094-34.402344 0-.007812.003906-.015625.007813-.023437.292968-.769532.605468-1.535156.933593-2.292969.054688-.125.109375-.253906.164063-.382813.28125-.632812.574218-1.257812.875-1.878906.097656-.199218.191406-.402344.292968-.601562.269532-.539063.554688-1.070313.839844-1.601563.136719-.25.265625-.503906.40625-.75.261719-.46875.539063-.929687.816406-1.394531.171876-.285156.335938-.574219.511719-.855469.230469-.371093.476563-.730469.71875-1.09375.523438-.800781 1.070313-1.585937 1.636719-2.359375.136719-.191406.273438-.382812.414062-.570312.34375-.460938.707032-.910156 1.066407-1.359375.164062-.199219.320312-.40625.488281-.605469.363281-.4375.738281-.871094 1.113281-1.300781.179688-.203125.355469-.402344.535157-.601563.382812-.421875.773437-.835937 1.167968-1.246094.191406-.195312.382813-.390624.574219-.585937.402344-.40625.808594-.808594 1.226563-1.203125.195312-.183594.394531-.363281.59375-.546875.425781-.394531.859374-.785156 1.300781-1.167969.179687-.15625.367187-.304687.550781-.460937 1.488281-1.25 3.058594-2.429688 4.695312-3.535157.277344-.1875.546876-.378906.832032-.5625.425781-.277343.859375-.539062 1.296875-.804687.484375-.296875.964843-.601563 1.464843-.886719.511719-.289062 1.027344-.554687 1.542969-.828125.4375-.230469.871094-.464843 1.3125-.683593.316407-.15625.632813-.300782.953125-.449219 1.777344-.839844 3.582032-1.582031 5.410156-2.21875.222657-.078125.441407-.160157.664063-.238281.558594-.1875 1.117187-.355469 1.679687-.527344.253907-.074219.507813-.152344.761719-.226563.554688-.15625 1.113281-.304687 1.671875-.445312.257813-.066407.519532-.128907.78125-.191407.558594-.132812 1.117188-.257812 1.679688-.371093.261718-.054688.519531-.101563.78125-.152344.5625-.105469 1.128906-.207031 1.695312-.296875.253906-.039062.507813-.074219.761719-.109375.574219-.082031 1.144531-.164063 1.71875-.226563.230469-.027343.464844-.042968.695313-.0625.949218-.09375 1.902343-.164062 2.851562-.207031.441406-.023437.882812-.046875 1.324219-.058593.328125-.007813.652343 0 .980469-.003907.546874-.003906 1.09375-.003906 1.640624.007813.273438.007812.550782.019531.824219.03125.613281.023437 1.226563.054687 1.839844.097656.214844.015625.425781.035156.636719.050781.703125.058594 1.398437.128907 2.097656.210938.128906.015625.253906.03125.382812.046875 12.34375 1.585937 24.058594 7.257812 32.980469 16.429687.058594.058594.117188.121094.175781.179688.535157.558593 1.0625 1.132812 1.582032 1.714843.132812.148438.261718.300782.394531.453126 2.359375 2.71875 4.492187 5.703124 6.339844 8.949218 15.234375 26.753906 5.871093 60.917969-20.882813 76.15625zm45.035156-133.714844c-3.34375 12.195313-10.542968 22.667969-20.5625 30.074219-10.078124-9.535156-22.394531-15.890625-35.46875-18.824219-.148437-.035156-.304687-.0625-.457031-.097656-.980469-.214844-1.964843-.414062-2.957031-.585937-.308594-.054688-.617188-.101563-.921875-.152344-.835937-.136719-1.675781-.265625-2.515625-.378906-.449219-.058594-.902344-.105469-1.355469-.15625-.699219-.078125-1.398437-.152344-2.097656-.214844-.582031-.046875-1.164063-.085937-1.746094-.121094-.578125-.035156-1.152343-.070312-1.730469-.089843-.691406-.027344-1.378906-.042969-2.070312-.050782-.285156-.003906-.566406-.019531-.851562-.019531-.191407 0-.382813.011719-.574219.011719-.78125.007812-1.5625.027344-2.34375.054687-.394531.015625-.789063.03125-1.1875.054688-.84375.042969-1.683594.105469-2.527344.179687-.339844.027344-.683594.058594-1.023437.09375-.882813.089844-1.757813.195313-2.636719.3125-.3125.046875-.625.089844-.9375.136719-.894531.132813-1.785157.28125-2.675781.449219-.304688.054687-.613282.113281-.917969.175781-.882813.175781-1.765625.367187-2.648438.578125-.316406.074219-.636719.152344-.953125.234375-.859375.214844-1.714844.445313-2.566406.691406-.347656.097657-.695312.203125-1.039062.308594-.816407.25-1.632813.511719-2.441407.789063-.386719.128906-.769531.269531-1.15625.40625-.765625.277343-1.53125.5625-2.292969.867187-.164062.0625-.328124.121094-.492187.183594-.417969-.664063-.816406-1.335938-1.207031-2.019531-.003906-.003907-.007813-.011719-.011719-.015626 0-.007812-.003906-.011718-.007813-.015624-3.433593-6.03125-5.664062-12.519532-6.683593-19.183594-.703125-4.609375-.8125-9.226563-.371094-13.753906.011719-.128907.023437-.257813.035156-.382813.058594-.566406.125-1.132813.203125-1.695313.023438-.175781.050782-.351562.078125-.527343.144531-1.019531.324219-2.035157.527344-3.042969.035156-.175781.066406-.351562.101563-.527344.109374-.503906.222656-1.003906.34375-1.503906.058593-.242188.121093-.484375.183593-.726562 2.875-11.285157 9.230469-21.558594 18.335938-29.152344.097656-.078125.191406-.160156.289062-.238282.453125-.371093.910157-.738281 1.375-1.097656.136719-.105468.273438-.203125.414063-.308594.710937-.535156 1.4375-1.054687 2.179687-1.5625 1.253907-.855468 2.539063-1.675781 3.871094-2.4375 1.5-.851562 3.023437-1.617187 4.5625-2.316406.347656-.160156.703125-.316406 1.054687-.46875.554688-.238281 1.109376-.46875 1.667969-.6875.335938-.132812.675781-.257812 1.015625-.382812.433594-.160156.867188-.3125 1.304688-.460938.351562-.121094.699218-.246094 1.050781-.355468.675781-.214844 1.347656-.417969 2.023437-.605469.40625-.113281.816407-.214844 1.222657-.316407.355469-.089843.710937-.179687 1.066406-.261718.433594-.101563.871094-.199219 1.308594-.289063.328125-.066406.652343-.128906.980469-.191406.78125-.144531 1.5625-.273437 2.34375-.386719.316406-.046875.636718-.097656.957031-.136718.441406-.058594.886719-.101563 1.328125-.148438.351562-.035156.699218-.070312 1.050781-.097656.417969-.035156.839844-.070313 1.257813-.09375.519531-.03125 1.039062-.054688 1.558593-.070313.460938-.015625.925781-.023437 1.390625-.027343.527344-.003907 1.058594-.003907 1.585938.007812.292968.007812.589844.015625.882812.027344.617188.023437 1.234375.054687 1.851563.097656.164062.011719.332031.019531.496093.03125.847657.066406 1.695313.152344 2.539063.257812.007813 0 .019531 0 .027344.003907.871093.105469 1.742187.238281 2.605469.386719.019531.003906.035156.007812.054687.007812 15.851563 2.769531 30.402344 12.3125 38.96875 27.351562 7.382813 12.960938 9.277344 28.019532 5.335937 42.40625zm0 0"/><path d="m117.070312 406.820312c-.035156-.015624-.078124-.035156-.117187-.058593-4.921875-2.40625-10.878906-.398438-13.335937 4.515625-2.46875 4.9375-.46875 10.945312 4.472656 13.414062.035156.019532.078125.042969.121094.0625 1.410156.6875 2.90625 1.015625 4.378906 1.015625 3.667968 0 7.199218-2.027343 8.953125-5.53125 2.46875-4.9375.46875-10.945312-4.472657-13.417969zm0 0"/><path d="m418.445312 198.375.089844.160156c1.839844 3.234375 5.203125 5.042969 8.671875 5.042969 1.675781 0 3.382813-.421875 4.945313-1.3125 4.804687-2.726563 6.472656-8.859375 3.746094-13.664063-2.699219-4.820312-8.796876-6.539062-13.613282-3.839843-4.820312 2.699219-6.535156 8.792969-3.839844 13.613281zm0 0"/><path d="m159.828125 104.59375c1.667969 3.699219 5.308594 5.890625 9.121094 5.890625 1.375 0 2.773437-.285156 4.105469-.890625 5.035156-2.269531 7.273437-8.195312 5-13.226562l-.226563-.503907c-2.265625-5.039062-8.1875-7.28125-13.222656-5.015625-5.035157 2.265625-7.28125 8.1875-5.015625 13.226563zm0 0"/><path d="m271.4375 386.269531c3.964844-3.84375 4.058594-10.175781.214844-14.140625-13.53125-13.945312-34.777344-16.964844-51.65625-7.347656-2.054688 1.167969-4.023438 2.519531-5.851563 4.011719-4.28125 3.496093-4.917969 9.792969-1.421875 14.074219 3.492188 4.277343 9.792969 4.914062 14.070313 1.421874.972656-.792968 2.015625-1.511718 3.101562-2.128906 8.953125-5.101562 20.222657-3.5 27.402344 3.898438 1.960937 2.019531 4.566406 3.035156 7.175781 3.035156 2.511719 0 5.023438-.9375 6.964844-2.824219zm0 0"/><path d="m336.6875 299.597656c-2.054688 1.171875-4.023438 2.523438-5.851562 4.015625-4.28125 3.492188-4.917969 9.792969-1.421876 14.070313 3.492188 4.277344 9.792969 4.914062 14.070313 1.421875.96875-.792969 2.011719-1.507813 3.101563-2.128907 8.953124-5.101562 20.222656-3.5 27.402343 3.898438 1.960938 2.023438 4.566407 3.035156 7.175781 3.035156 2.511719 0 5.019532-.9375 6.964844-2.820312 3.964844-3.847656 4.058594-10.179688.210938-14.144532-13.527344-13.945312-34.769532-16.964843-51.652344-7.347656zm0 0"/><path d="m351.671875 191.59375c-2.054687 1.171875-4.023437 2.519531-5.851563 4.015625-4.277343 3.492187-4.917968 9.792969-1.421874 14.070313 3.492187 4.277343 9.792968 4.914062 14.070312 1.421874.96875-.792968 2.011719-1.507812 3.101562-2.128906 8.957032-5.101562 20.226563-3.496094 27.402344 3.898438 1.960938 2.019531 4.566406 3.035156 7.179688 3.035156 2.507812 0 5.019531-.9375 6.960937-2.820312 3.964844-3.847657 4.058594-10.179688.214844-14.144532-13.53125-13.941406-34.773437-16.964844-51.65625-7.347656zm0 0"/><path d="m288.828125 265.46875c-13.53125-13.945312-34.773437-16.964844-51.65625-7.347656-2.054687 1.167968-4.023437 2.519531-5.851563 4.011718-4.28125 3.492188-4.917968 9.792969-1.421874 14.070313 3.492187 4.28125 9.792968 4.917969 14.070312 1.421875.96875-.789062 2.011719-1.507812 3.101562-2.125 8.953126-5.101562 20.226563-3.5 27.402344 3.898438 1.960938 2.019531 4.566406 3.035156 7.179688 3.035156 2.507812 0 5.019531-.941406 6.960937-2.824219 3.964844-3.847656 4.058594-10.179687.214844-14.140625zm0 0"/><path d="m132.363281 342.757812c8.957031-5.101562 20.226563-3.5 27.402344 3.898438 1.960937 2.023438 4.566406 3.035156 7.175781 3.035156 2.511719 0 5.023438-.9375 6.964844-2.820312 3.964844-3.847656 4.058594-10.179688.214844-14.144532-13.53125-13.941406-34.773438-16.964843-51.660156-7.347656-2.054688 1.171875-4.019532 2.523438-5.847657 4.015625-4.28125 3.492188-4.917969 9.792969-1.421875 14.070313 3.492188 4.277344 9.792969 4.914062 14.070313 1.421875.96875-.792969 2.011719-1.507813 3.101562-2.128907zm0 0"/></svg>