<svg viewBox="0 -20 512.00037 512" xmlns="http://www.w3.org/2000/svg"><path d="m123.886719 378.859375c-31.425781-12.292969-68.886719-37.96875-68.886719-90.476563 0-5.523437-4.476562-10-10-10s-10 4.476563-10 10c0 49.773438 28.980469 88.519532 81.601562 109.101563 1.195313.46875 2.425782.691406 3.640626.691406 3.996093 0 7.769531-2.414062 9.3125-6.363281 2.011718-5.144531-.527344-10.945312-5.667969-12.953125zm0 0"/><path d="m148.359375 386.40625c-.160156-.039062-.367187-.089844-.527344-.121094-5.410156-1.109375-10.695312 2.367188-11.808593 7.777344-1.097657 5.328125 2.261718 10.535156 7.527343 11.757812.78125.183594 1.558594.273438 2.324219.273438 4.457031 0 8.519531-3 9.679688-7.511719 1.375-5.347656-1.847657-10.800781-7.195313-12.175781zm0 0"/><path d="m390.152344 430.109375.679687 9.980469-.800781-9.96875c-5.507812.402344-9.648438 5.191406-9.246094 10.699218.382813 5.261719 4.769532 9.273438 9.960938 9.273438.246094 0 .492187-.007812.738281-.027344.015625 0 .136719-.011718.160156-.011718 5.503907-.410157 9.632813-5.207032 9.222657-10.714844-.410157-5.507813-5.214844-9.632813-10.714844-9.230469zm0 0"/><path d="m449.175781 217.519531c-27.371093-21.5-16.78125-60.632812 1.164063-113.566406 1.738281-5.125-.917969-10.699219-5.988282-12.582031l-19.726562-7.332032c-5.074219-1.882812-10.722656.609376-12.753906 5.621094-20.972656 51.808594-38.511719 88.378906-73.273438 86.773438-.824218-.035156-1.632812-.046875-2.453125-.078125-19.003906-14.757813-42.339843-26.640625-69.445312-35.328125-19.632813-6.292969-32.136719-21.21875-39.351563-46.980469-6.957031-24.84375-7.871094-56.449219-8.679687-84.335937-.15625-5.40625-4.585938-9.710938-9.996094-9.710938h-25.476563c-5.410156 0-9.835937 4.304688-9.996093 9.710938-.804688 27.886718-1.71875 59.492187-8.675781 84.335937-7.214844 25.761719-19.71875 40.691406-39.351563 46.980469-80.71875 25.871094-125.171875 78.203125-125.171875 147.355468 0 49.199219 21.550781 90.5 62.320312 119.4375 23.832032 16.917969 53.128907 28.714844 85.21875 34.632813-6.398437 3.433594-12.859374 7.59375-18.96875 12.632813-4.257812 3.515624-4.863281 9.816406-1.347656 14.078124 1.980469 2.394532 4.835938 3.636719 7.71875 3.636719 2.242188-.003906 4.496094-.75 6.359375-2.289062 15.03125-12.398438 33.199219-18.597657 44.632813-21.488281v12.78125c0 5.523437 4.480468 10 10 10 5.523437 0 10-4.476563 10-10v-12.78125c11.441406 2.894531 29.601562 9.085937 44.636718 21.488281 1.863282 1.539062 4.117188 2.289062 6.355469 2.289062 2.882813 0 5.742188-1.242187 7.71875-3.636719 3.515625-4.261718 2.910157-10.5625-1.347656-14.078124-6.128906-5.054688-12.617187-9.230469-19.039063-12.671876 15.289063-2.828124 30.023438-6.996093 43.839844-12.429687 5.398438 2.507813 10.945313 4.832031 16.632813 6.949219 16.660156 6.183594 33.773437 10.324218 50.855469 12.308594.390624.046874.78125.066406 1.164062.066406 5.007812 0 9.332031-3.753906 9.921875-8.847656.636719-5.484376-3.292969-10.449219-8.777344-11.085938-15.496093-1.796875-31.042969-5.5625-46.199219-11.1875-8.953124-3.332031-17.769531-7.332031-26.242187-11.941406-38.046875-20.789063-73.808594-57.097656-75.828125-103.257813-.011719-.226562-.023438-.449219-.035156-.675781-.019532-.597656-.027344-1.203125-.039063-1.808594-.007812-.449218-.015625-.894531-.019531-1.347656 0-.472656.007812-.949219.011719-1.425781.007812-.578125.019531-1.160157.035156-1.742188.011719-.394531.03125-.792969.046875-1.191406.03125-.664063.0625-1.328125.105469-1.996094.023437-.34375.046875-.691406.074219-1.039062.054687-.714844.113281-1.429688.183593-2.148438.03125-.320312.066407-.644531.097657-.964843.082031-.742188.167968-1.488282.265624-2.234376.042969-.308593.082032-.621093.125-.929687.105469-.757813.222657-1.515625.347657-2.273437.050781-.3125.097656-.621094.152343-.933594.128907-.757813.273438-1.519532.421876-2.28125.0625-.316406.121093-.632813.1875-.953125.15625-.75.324218-1.507813.496093-2.265625.078125-.328125.148438-.660156.226563-.992188.175781-.742187.371094-1.488281.5625-2.234375.09375-.347656.179687-.695312.273437-1.046875.199219-.726562.414063-1.460937.628907-2.191406.105468-.367188.207031-.734375.320312-1.101562.226562-.742188.472656-1.484376.714844-2.230469.117187-.355469.222656-.710938.34375-1.070313.320312-.933594.65625-1.875 1-2.816406.058594-.160156.109375-.316406.171875-.476562.171875-.46875.351562-.921876.53125-1.378907.160156-.417969.316406-.835937.480469-1.25.261718-.648437.527343-1.289062.796874-1.925781.089844-.207031.171876-.417969.261719-.625.335938-.785156.679688-1.5625 1.03125-2.328125.019531-.042969.039063-.089844.058594-.136719 22.808594-49.746094 73.433594-59.539062 112.851563-58.734375.066406.003907.136718.003907.207031.003907h.003906c1.726563.039062 3.445313.097656 5.136719.171874 23.398437 1.0625 42.878906-9.582031 59.585937-32.554687 12.019531-16.527344 21.324219-37.769531 29.484375-57.691406l1.539063.570312c-6.832031 20.417969-13.65625 42.582031-15.34375 62.945313-2.347657 28.308594 5.460937 49.101562 23.871093 63.5625 34.167969 26.847656 70.351563 71.085937 48.6875 129.386718-11.945312 32.152344-36.0625 53.984376-69.746093 63.144532-5.332031 1.449218-8.476563 6.941406-7.027344 12.269531 1.449219 5.332031 6.941406 8.476563 12.273437 7.027344 40.171876-10.921875 68.960938-37.019531 83.246094-75.476563 20.179688-54.308594.621094-108.316406-55.078125-152.078125zm-253.234375 209.304688c-84.738281-.035157-175.941406-43.375-175.941406-138.441407 0-80.605468 69.71875-114.988281 111.273438-128.308593 26.265624-8.417969 43.441406-28.25 52.507812-60.632813 6.78125-24.214844 8.28125-52.945312 9.121094-79.441406h6.066406c.839844 26.496094 2.339844 55.226562 9.121094 79.441406 9.066406 32.382813 26.242187 52.214844 52.503906 60.632813 15.199219 4.871093 29.054688 10.792969 41.445312 17.699219-44.550781 5.683593-77.875 26.625-96.730468 60.964843-.273438.5-.554688.996094-.820313 1.5-.394531.742188-.777343 1.496094-1.160156 2.253907-.367187.722656-.726563 1.449218-1.078125 2.183593-.320312.664063-.636719 1.328125-.941406 2-.417969.910157-.824219 1.828125-1.222656 2.753907-.234376.550781-.476563 1.097656-.710938 1.652343-.605469 1.464844-1.191406 2.945313-1.753906 4.445313-.015625.042968-.03125.078125-.046875.121094-.050781.132812-.09375.269531-.144531.40625-.367188 1.003906-.730469 2.007812-1.070313 3.011718-.199219.578125-.382813 1.152344-.570313 1.730469-.179687.550781-.363281 1.101563-.535156 1.648437-.234375.753907-.457031 1.507813-.679687 2.261719-.101563.351563-.207031.699219-.308594 1.050781-.257813.90625-.5 1.808594-.734375 2.714844-.046875.171875-.09375.34375-.136719.515625-7.65625 29.738281-3.9375 59.242188 10.914063 86.59375.019531.035157.042968.074219.0625.109375.511718.945313 1.035156 1.886719 1.574218 2.824219.027344.042969.050782.089844.074219.132813.050781.089843.109375.175781.160157.269531.667968 1.152343 1.359374 2.300781 2.066406 3.441406.183594.292969.363281.585937.546875.878906.726562 1.152344 1.46875 2.300781 2.234375 3.445313.074218.109375.144531.21875.21875.328125.140625.207031.273437.417969.414062.628906 12.949219 19.019531 31.015625 35.878906 52.625 49.433594-21.390625 6.402343-44.644531 9.742187-68.34375 9.75zm0 0"/><path d="m471.449219 357.410156c14.652343-39.4375-.527344-78.292968-43.898438-112.367187-14.222656-11.175781-23.136719-24.777344-27.246093-41.578125-.785157-3.222656-3.121094-5.84375-6.230469-6.996094-3.109375-1.15625-6.585938-.695312-9.289063 1.230469-14.078125 10.042969-29.714844 14.523437-47.78125 13.699219-55.101562-2.507813-91.964844 17.003906-106.621094 56.441406-11.152343 30.027344-6.058593 59.910156 14.742188 86.425781 16.3125 20.792969 42.480469 38.96875 71.792969 49.859375 20.300781 7.542969 41.734375 11.457031 61.613281 11.457031 8.824219 0 17.34375-.773437 25.320312-2.339843 33.066407-6.5 56.441407-25.808594 67.597657-55.832032zm-71.457031 36.207032c-22.414063 4.40625-50.15625 1.402343-76.105469-8.242188-25.953125-9.640625-48.925781-25.480469-63.023438-43.453125-16.511719-21.046875-20.457031-43.628906-11.730469-67.117187 10.765626-28.976563 37.125-43.625 78.417969-43.625 2.777344 0 5.628907.0625 8.542969.195312 17.707031.808594 34.078125-2.675781 48.867188-10.371094 6.171874 15.484375 16.308593 28.820313 30.238281 39.765625 36.375 28.578125 48.992187 58.75 37.503906 89.675781-8.730469 23.484376-26.464844 38.011719-52.710937 43.171876zm0 0"/><path d="m385.359375 281.296875c.019531.015625.046875.042969.070313.066406 1.914062 1.75 4.320312 2.617188 6.722656 2.617188 2.695312 0 5.382812-1.089844 7.359375-3.230469 3.746093-4.058594 3.472656-10.402344-.585938-14.148438-4.058593-3.746093-10.386719-3.492187-14.128906.566407-3.746094 4.058593-3.492187 10.382812.5625 14.128906zm0 0"/><path d="m424.382812 289.769531c-1.042968-1.179687-2.132812-2.355469-3.230468-3.5-3.824219-3.984375-10.15625-4.113281-14.136719-.289062-3.984375 3.824219-4.113281 10.152343-.289063 14.136719.910157.953124 1.8125 1.929687 2.679688 2.90625 5.378906 6.082031 9.109375 11.894531 11.089844 17.269531 2.175781 5.90625 2.003906 10.9375-.605469 17.960937-2.804687 7.546875-6.59375 12.421875-12.285156 15.808594-17.925781 10.667969-48.839844 6.933594-71.53125-1.496094-22.6875-8.429687-48.539063-25.789062-55.152344-45.574218-2.097656-6.28125-1.785156-12.449219 1.019531-19.996094 5.476563-14.746094 19.566406-20.988282 46.960938-20.800782 1.839844.007813 3.722656.058594 5.59375.144532 12.109375.550781 24.070312-.503906 35.632812-3.140625 3.257813 1.859375 7.433594 1.800781 10.707032-.492188 4.523437-3.167969 5.621093-9.40625 2.453124-13.929687-.519531-.738282-1.023437-1.484375-1.519531-2.234375-2.394531-3.625-6.847656-5.292969-11.03125-4.125-11.355469 3.167969-23.242187 4.496093-35.328125 3.941406-2.132812-.097656-4.28125-.152344-6.386718-.167969-14.546876-.089844-53.140626-.320312-65.828126 33.835938-4.382812 11.796875-4.789062 22.691406-1.242187 33.304687 9.308594 27.835938 41.992187 48.632813 67.15625 57.984375 13.960937 5.1875 31.96875 9.214844 49.546875 9.214844 14.109375 0 27.945312-2.597656 39.175781-9.28125 9.621094-5.722656 16.425781-14.238281 20.808594-26.035156 4.230469-11.386719 4.429687-21.5.625-31.835938-2.84375-7.714844-7.851563-15.65625-14.882813-23.609375zm0 0"/><path d="m384.308594 300.085938c-6.382813-5.011719-12.363282-10.542969-17.773438-16.4375-2.171875-2.363282-5.347656-3.542969-8.527344-3.167969-7.945312.929687-16.085937 1.214843-24.195312.84375-2.308594-.105469-22.871094-.875-32.722656 4.433593-1.914063 1.03125-3.441406 2.660157-4.347656 4.640626-.300782.65625-.53125 1.261718-.742188 1.828124-1.21875 3.28125-1.410156 5.117188-1.445312 6.210938-.03125.859375.050781 1.722656.242187 2.558594.085937.386718.207031.808594.351563 1.246094 7.101562 21.238281 45.761718 36.121093 46.152343 36.265624.273438.105469 19.976563 7.164063 38.292969 7.164063 7.503906 0 14.78125-1.1875 20.386719-4.523437.351562-.210938.742187-.464844 1.078125-.714844.671875-.503906 1.277344-1.085938 1.804687-1.742188.691407-.859375 1.753907-2.382812 2.96875-5.65625.195313-.53125.425781-1.167968.628907-1.875.605468-2.089844.511718-4.316406-.261719-6.347656-3.996094-10.453125-20.074219-23.296875-21.890625-24.726562zm-36.042969 19.675781c-10.21875-3.796875-23.125-11.433594-29.851563-17.984375 4.425782-.46875 9.882813-.683594 14.488282-.472656 7.480468.339843 14.988281.1875 22.386718-.449219 5.1875 5.316406 10.777344 10.332031 16.660157 14.957031 3.628906 2.851562 7.617187 6.574219 10.664062 9.816406-9.367187.566406-24.132812-2.074218-34.347656-5.867187zm0 0"/></svg>